<?xml version="1.0" encoding="utf-8"?>
<!-- Generator: Adobe Illustrator 16.0.4, SVG Export Plug-In . SVG Version: 6.00 Build 0)  -->
<!DOCTYPE svg PUBLIC "-//W3C//DTD SVG 1.1//EN" "http://www.w3.org/Graphics/SVG/1.1/DTD/svg11.dtd">
<svg version="1.1" id="Layer_1" xmlns="http://www.w3.org/2000/svg" xmlns:xlink="http://www.w3.org/1999/xlink" x="0px" y="0px"
	 width="13.438px" height="13.734px" viewBox="0 0 13.438 13.734" enable-background="new 0 0 13.438 13.734" xml:space="preserve">
<path fill="#1668B3" d="M11.934,0H1.392C0.589,0-0.062,0.651-0.062,1.454v10.542c0,0.804,0.651,1.454,1.454,1.454h10.542
	c0.803,0,1.453-0.65,1.453-1.454V1.454C13.387,0.651,12.736,0,11.934,0z M9.305,3.422c0.695,0,1.26,0.564,1.26,1.261
	S10,5.944,9.305,5.944c-0.697,0-1.262-0.564-1.262-1.261S8.607,3.422,9.305,3.422z M3.9,3.422c0.696,0,1.261,0.564,1.261,1.261
	S4.597,5.944,3.9,5.944S2.639,5.379,2.639,4.683S3.204,3.422,3.9,3.422z M10.588,10.448h-0.203H9.867H3.36H3h-0.36V8.646H3.36v1.081
	h6.507V8.646h0.721V10.448z"/>
</svg>
