<?xml version="1.0" encoding="utf-8"?>
<!-- Generator: Adobe Illustrator 16.0.4, SVG Export Plug-In . SVG Version: 6.00 Build 0)  -->
<!DOCTYPE svg PUBLIC "-//W3C//DTD SVG 1.1//EN" "http://www.w3.org/Graphics/SVG/1.1/DTD/svg11.dtd">
<svg version="1.1" id="Layer_1" xmlns="http://www.w3.org/2000/svg" xmlns:xlink="http://www.w3.org/1999/xlink" x="0px" y="0px"
	 width="140px" height="32.5px" viewBox="0 0 140 32.5" enable-background="new 0 0 140 32.5" xml:space="preserve">
<path fill="#BE1E2D" d="M23.149,6H8.518C7.404,6,6.5,6.904,6.5,8.018v14.631c0,1.114,0.904,2.018,2.018,2.018h14.631
	c1.114,0,2.018-0.904,2.018-2.018V8.018C25.167,6.904,24.263,6,23.149,6z M19.5,10.75c0.966,0,1.75,0.784,1.75,1.75
	s-0.784,1.75-1.75,1.75s-1.75-0.784-1.75-1.75S18.534,10.75,19.5,10.75z M12,10.75c0.966,0,1.75,0.784,1.75,1.75
	s-0.784,1.75-1.75,1.75s-1.75-0.784-1.75-1.75S11.034,10.75,12,10.75z M21.281,20.5H21h-0.719H11.25h-0.5h-0.5V18h1v1.5h9.031V18h1
	V20.5z"/>
<g>
	<path d="M43.14,24.527h-3.744v-8.953c0-1.104-0.624-1.512-1.416-1.512h-0.768c-1.008,0-1.608,0.408-1.608,1.512v8.953h-3.72V14.158
		c0-2.448,1.824-3.552,4.104-3.552h2.544c1.608,0,2.472,0.888,2.736,1.536c0.288-0.648,1.248-1.536,2.712-1.536h2.544
		c2.28,0,4.104,1.128,4.104,3.577v10.345h-3.72v-8.953c0-1.104-0.6-1.512-1.416-1.512H44.7c-0.984,0-1.56,0.408-1.56,1.488V24.527z"
		/>
	<path d="M53.433,20.807v-1.536c0-2.448,1.824-3.552,4.104-3.552h5.448v-0.144c0-1.104-0.6-1.512-1.416-1.512h-7.896v-3.457h8.928
		c2.28,0,4.104,1.104,4.104,3.552v6.649c0,2.448-1.824,3.72-4.104,3.72h-5.064C55.257,24.527,53.433,23.255,53.433,20.807z
		 M62.985,19.583v-0.408h-4.488c-0.648,0-1.344,0.24-1.344,0.984c0,0.72,0.696,0.936,1.344,0.936h3.072
		C62.386,21.095,62.985,20.663,62.985,19.583z"/>
	<path d="M73.378,24.527h-3.72V14.326c0-2.448,1.824-3.721,4.104-3.721h2.688v3.457h-1.464c-1.008,0-1.608,0.408-1.608,1.512V24.527
		z"/>
	<path d="M82.793,17.086l4.944-6.481h4.44l-5.329,6.961l5.568,6.96h-4.536l-5.088-6.336v6.336h-3.721V5.805h3.721V17.086z"/>
	<path d="M103.338,10.605c2.28,0,4.104,1.104,4.104,3.552v6.649c0,2.448-1.824,3.72-4.104,3.72h-5.017
		c-2.28,0-4.104-1.272-4.104-3.72V5.805h3.72v4.8H103.338z M97.938,19.583c0,1.08,0.6,1.512,1.608,1.512h2.736
		c0.816,0,1.44-0.432,1.44-1.512v-4.008c0-1.488-1.032-1.512-1.944-1.512h-3.84V19.583z"/>
	<path d="M123.5,20.854c0,2.448-1.824,3.672-4.104,3.673h-5.016c-2.28,0-4.104-1.32-4.104-3.769V14.23
		c0-2.448,1.824-3.625,4.104-3.625h5.016c2.28,0,4.104,1.056,4.104,3.504V20.854z M114.019,19.583c0,1.08,0.6,1.512,1.608,1.512
		l2.736,0c0.816,0,1.44-0.432,1.44-1.512v-4.008c0-1.104-0.624-1.512-1.44-1.512h-2.736c-1.008,0-1.608,0.408-1.608,1.512V19.583z"
		/>
	<path d="M130.125,5.805v4.8h3.12v3.433h-3.12v10.489h-3.721V5.805H130.125z"/>
</g>
</svg>
